<svg height="100%" width="100%" fill="#2a4365" xmlns="http://www.w3.org/2000/svg" viewBox="0 0 32 32">
  <path d="M15.599 18.438c-.16 0-.323-.008-.49-.029-1.107-.143-1.798-.789-2.408-1.359-.571-.533-.897-.761-1.274-.75-.253.001-.555.085-.875.174-.587.163-1.316.366-2.131.154-2.284-.591-2.52-2.956-2.676-4.521a17.352 17.352 0 00-.075-.678c-.021-.148-.043-.319-1.186-.243-.07.004-.15.023-.234.04-.414.081-1.104.215-1.689-.212-.776-.567-.774-1.709-.704-2.339a1 1 0 111.988.219 2.463 2.463 0 00-.013.375l.035-.007c.175-.035.343-.064.489-.074.743-.048 3.002-.193 3.296 1.97.032.232.057.485.083.749.148 1.488.32 2.56 1.187 2.784.293.075.665-.026 1.096-.146.412-.114.878-.243 1.396-.246h.019c1.255 0 2.058.751 2.59 1.249.543.508.859.789 1.269.866a1.666 1.666 0 01-.11-.389c-.055-.355-.032-.986.606-1.571a2.363 2.363 0 01-.192-.07c-.832-.354-1.313-1.017-1.321-1.818-.009-.935.677-1.9 1.668-2.348 1.957-.882 3.009.41 3.705 1.265l.206.251c.241.289.541.56.783.735a3.763 3.763 0 00-.021-.096c-.076-.354-.171-.796-.058-1.296.193-.851.8-1.444 1.368-1.912.26-.214.53-.417.802-.62.688-.514 1.339-1 1.721-1.649.223-.378.342-.781.335-1.135-.002-.133-.058-.281-.146-.51-.083-.214-.178-.456-.235-.749a1 1 0 111.961-.388c.029.146.086.278.138.411.122.313.274.703.283 1.2.017.92-.323 1.697-.611 2.186-.586.996-1.468 1.655-2.247 2.237-.246.184-.492.367-.728.561-.307.253-.629.547-.688.811-.017.069.031.289.062.435.082.382.194.906.001 1.471-.31.906-.945 1.15-1.297 1.215-1.297.237-2.593-1.184-2.959-1.625l-.221-.269c-.752-.922-.832-.928-1.333-.704-.268.121-.434.344-.479.459.019.007.05.024.094.043.072.028.16.038.248.054.422.079 1.299.242 1.642 1.144.312.822.02 1.5-.872 2.014l-.08.047c.093.064.215.133.354.192a1.427 1.427 0 011.269 1.418 1.001 1.001 0 01-1.272.942c-.308-.086-.685-.042-1.122.01-.292.033-.61.072-.947.072z"/>
  <path d="M17.674 31.692a1.002 1.002 0 01-.974-1.226l.23-.966c.259-1.072.527-2.18.678-3.262.197-1.412.175-1.843-.491-2.503-.825-.818-1.2-1.594-1.147-2.37.03-.447.228-1.104.998-1.684.116-.088.24-.165.366-.241.047-.028.107-.065.156-.098-.062-.189-.255-.511-.355-.679a9.543 9.543 0 01-.219-.379.98.98 0 01-.113-.391 1.23 1.23 0 01.162-.9c.437-.703 1.441-.792 2.006-.771a4.412 4.412 0 012.077.583c.254.144.479.298.691.445.562.389.726.487 1.139.377.188-.05.494-.184.792-.312.945-.413 2.122-.925 3.139-.503 1.768.732 1.58 3.34 1.223 4.417-.518 1.563-1.254 2.673-2.25 3.389-.277.199-.546.367-.804.527-.643.399-1.066.662-1.375 1.284-1.156 2.331-2.746 4.778-5.774 5.251a1.031 1.031 0 01-.155.012zm1.517-13.448c.242.488.421 1.057.257 1.656-.195.715-.747 1.049-1.076 1.249-.068.042-.138.082-.2.129-.165.125-.205.209-.206.223 0 .002-.01.249.56.814 1.45 1.438 1.254 2.842 1.063 4.2a29.064 29.064 0 01-.512 2.606c1.12-.709 1.936-1.971 2.734-3.581.562-1.132 1.349-1.621 2.11-2.094.222-.139.454-.282.692-.453.641-.461 1.138-1.244 1.519-2.394.255-.771.129-1.85-.09-1.94-.259-.083-1.149.303-1.575.488-.383.167-.744.324-1.079.413-1.324.351-2.133-.213-2.785-.665-.168-.115-.344-.238-.543-.352a2.477 2.477 0 00-.869-.299z"/>
  <path d="M16 32C7.178 32 0 24.822 0 16S7.178 0 16 0s16 7.178 16 16-7.178 16-16 16zm0-30C8.28 2 2 8.28 2 16s6.28 14 14 14 14-6.28 14-14S23.72 2 16 2z"/>
  <path d="M17.288 6.01c-.118 0-.237-.004-.358-.012-.713-.05-1.352-.327-1.916-.572-.384-.167-.747-.324-1.071-.386-.217-.041-.877-.167-1.186-.806-.194-.407-.127-.792-.099-.957l.051-.27c.036-.185.078-.369.081-.557v-.038a1 1 0 01-.814-1.777c.655-.491 1.606-.399 2.213.214.398.402.611.983.601 1.635a4.122 4.122 0 01-.077.689c.403.117.753.269 1.096.417.457.198.888.386 1.26.412.564.037 1.211-.091 1.89-.23l.295-.06c-.15-.303-.273-.7-.216-1.152.09-.71.61-1.316 1.326-1.543.547-.172 1.181-.11 1.736.173a1 1 0 01-.907 1.783.647.647 0 00-.075-.032c.017.023.036.05.059.079l.11.138c.21.261.473.586.615 1.03a1 1 0 01-.936 1.307c-.496.008-1.036.118-1.607.235-.667.139-1.355.28-2.071.28z"/>
</svg>
